<svg xmlns="http://www.w3.org/2000/svg" xmlns:xlink="http://www.w3.org/1999/xlink" width="1024" height="620" viewBox="0 0 1024 620">
  <defs>
    <style>
      .cls-1 {
        isolation: isolate;
      }

      .cls-2 {
        fill: none;
      }

      .cls-3 {
        fill: #e2eafb;
      }

      .cls-4 {
        fill: #cbdcf9;
      }

      .cls-5 {
        fill: #f9faff;
      }

      .cls-6 {
        fill: #80a6f5;
      }

      .cls-7 {
        fill: #9ebbfa;
      }

      .cls-8 {
        fill: #b7cff8;
      }

      .cls-25, .cls-34, .cls-9 {
        fill: #207bff;
      }

      .cls-26, .cls-9 {
        opacity: 0.4;
      }

      .cls-10 {
        fill: #004bff;
        opacity: 0.5;
        mix-blend-mode: multiply;
      }

      .cls-11 {
        fill: #c4d7f9;
      }

      .cls-12 {
        fill: url(#_ÂÁ_Ï_ÌÌ_È_ËÂÌÚ_3);
      }

      .cls-13 {
        fill: #4aeaff;
      }

      .cls-14, .cls-33 {
        fill: #fff;
      }

      .cls-15 {
        fill: #bdf8ff;
      }

      .cls-16 {
        fill: url(#linear-gradient);
      }

      .cls-17 {
        fill: #eb1c24;
      }

      .cls-18 {
        fill: url(#linear-gradient-2);
      }

      .cls-19 {
        fill: url(#linear-gradient-3);
      }

      .cls-20 {
        fill: url(#linear-gradient-4);
      }

      .cls-21 {
        fill: url(#linear-gradient-5);
      }

      .cls-22 {
        fill: url(#linear-gradient-6);
      }

      .cls-23 {
        fill: url(#linear-gradient-7);
      }

      .cls-24 {
        fill: #92b3fa;
      }

      .cls-26 {
        mix-blend-mode: lighten;
        fill: url(#radial-gradient);
      }

      .cls-27 {
        fill: #00ffda;
      }

      .cls-28 {
        fill: #7fd1ca;
      }

      .cls-29 {
        fill: #1e1e1e;
      }

      .cls-30 {
        fill: url(#_ÂÁ_Ï_ÌÌ_È_ËÂÌÚ_14);
      }

      .cls-31 {
        fill: url(#_ÂÁ_Ï_ÌÌ_È_ËÂÌÚ_2);
      }

      .cls-32 {
        fill: #4880f7;
      }

      .cls-33 {
        opacity: 0.8;
      }

      .cls-34 {
        opacity: 0.72;
      }

      .cls-35, .cls-36, .cls-37, .cls-38 {
        fill: #3ae5fa;
      }

      .cls-35, .cls-39 {
        opacity: 0.1;
      }

      .cls-36 {
        opacity: 0.3;
      }

      .cls-38 {
        opacity: 0.7;
      }

      .cls-39, .cls-40 {
        fill: #51b2fb;
      }

      .cls-40 {
        opacity: 0.2;
      }
    </style>
    <radialGradient id="_ÂÁ_Ï_ÌÌ_È_ËÂÌÚ_3" data-name="¡ÂÁ˚ÏˇÌÌ˚È „‡‰ËÂÌÚ 3" cx="3127.47" cy="468.73" r="10.33" gradientTransform="translate(-2880.82)" gradientUnits="userSpaceOnUse">
      <stop offset="0" stop-color="#4aeaff"/>
      <stop offset="1" stop-color="#00709d"/>
    </radialGradient>
    <linearGradient id="linear-gradient" x1="505.7" y1="288.33" x2="505.7" y2="345.28" gradientTransform="translate(-242.09)" gradientUnits="userSpaceOnUse">
      <stop offset="0.02" stop-color="#dc2a21"/>
      <stop offset="0.06" stop-color="#c7201b"/>
      <stop offset="0.1" stop-color="#b61717"/>
      <stop offset="0.15" stop-color="#ab1113"/>
      <stop offset="0.22" stop-color="#a40e12"/>
      <stop offset="0.43" stop-color="#a20d11"/>
      <stop offset="0.79" stop-color="#6b0006"/>
    </linearGradient>
    <linearGradient id="linear-gradient-2" x1="489.16" y1="290.87" x2="489.16" y2="331.75" gradientTransform="translate(-242.09)" gradientUnits="userSpaceOnUse">
      <stop offset="0" stop-color="#ac1a27"/>
      <stop offset="0.08" stop-color="#9e151f"/>
      <stop offset="0.28" stop-color="#7d0a0e"/>
      <stop offset="0.44" stop-color="#680304"/>
      <stop offset="0.56" stop-color="#610000"/>
      <stop offset="0.73" stop-color="#520000"/>
      <stop offset="1" stop-color="#3f0000"/>
    </linearGradient>
    <linearGradient id="linear-gradient-3" x1="418.56" y1="311.91" x2="445.92" y2="311.91" gradientTransform="matrix(-1, 0, 0, 1, 728.44, 0)" gradientUnits="userSpaceOnUse">
      <stop offset="0" stop-color="#bd1349"/>
      <stop offset="0.24" stop-color="#bd124e"/>
      <stop offset="0.25" stop-color="#bd124e"/>
      <stop offset="1" stop-color="#7a0025"/>
    </linearGradient>
    <linearGradient id="linear-gradient-4" x1="410.67" y1="325.5" x2="446.03" y2="325.5" gradientTransform="matrix(-1, 0, 0, 1, 728.44, 0)" gradientUnits="userSpaceOnUse">
      <stop offset="0" stop-color="#282880"/>
      <stop offset="0.27" stop-color="#26257c"/>
      <stop offset="0.56" stop-color="#1f1b6f"/>
      <stop offset="0.85" stop-color="#140b5a"/>
      <stop offset="1" stop-color="#0d004c"/>
    </linearGradient>
    <linearGradient id="linear-gradient-5" x1="419.03" y1="325.5" x2="445.91" y2="325.5" xlink:href="#linear-gradient-3"/>
    <linearGradient id="linear-gradient-6" x1="424.48" y1="311.8" x2="458.26" y2="311.8" xlink:href="#linear-gradient-4"/>
    <linearGradient id="linear-gradient-7" x1="514.95" y1="324.15" x2="514.95" y2="304.8" gradientTransform="translate(-242.09)" gradientUnits="userSpaceOnUse">
      <stop offset="0" stop-color="#ec2d24"/>
      <stop offset="0.12" stop-color="#ec2824"/>
      <stop offset="0.25" stop-color="#eb1c24"/>
      <stop offset="1" stop-color="#74020d"/>
    </linearGradient>
    <radialGradient id="radial-gradient" cx="3272.16" cy="548.95" r="20.54" gradientTransform="matrix(0.74, 0.02, -0.03, 0.82, -2288.1, -206.49)" gradientUnits="userSpaceOnUse">
      <stop offset="0" stop-color="#00ddde" stop-opacity="0.52"/>
      <stop offset="0.09" stop-color="#2de6e7" stop-opacity="0.65"/>
      <stop offset="0.2" stop-color="#63f1f1" stop-opacity="0.8"/>
      <stop offset="0.3" stop-color="#8af8f9" stop-opacity="0.91"/>
      <stop offset="0.38" stop-color="#a2fdfd" stop-opacity="0.98"/>
      <stop offset="0.43" stop-color="#abffff"/>
      <stop offset="0.46" stop-color="#9ffcfd"/>
      <stop offset="0.51" stop-color="#7ff6f6"/>
      <stop offset="0.58" stop-color="#4aebeb"/>
      <stop offset="0.66" stop-color="#03dcdd"/>
      <stop offset="0.66" stop-color="#00dbdc"/>
      <stop offset="0.69" stop-color="#08dcdd" stop-opacity="0.97"/>
      <stop offset="0.74" stop-color="#1fdfe0" stop-opacity="0.88"/>
      <stop offset="0.8" stop-color="#44e5e5" stop-opacity="0.73"/>
      <stop offset="0.87" stop-color="#78eced" stop-opacity="0.53"/>
      <stop offset="0.94" stop-color="#baf5f6" stop-opacity="0.27"/>
      <stop offset="1" stop-color="#fff" stop-opacity="0"/>
    </radialGradient>
    <linearGradient id="_ÂÁ_Ï_ÌÌ_È_ËÂÌÚ_14" data-name="¡ÂÁ˚ÏˇÌÌ˚È „‡‰ËÂÌÚ 14" x1="3022.16" y1="315.43" x2="3137.1" y2="315.43" gradientTransform="translate(-2856.17 13.43) rotate(-2.88)" gradientUnits="userSpaceOnUse">
      <stop offset="0" stop-color="#003a6b"/>
      <stop offset="1" stop-color="#00204c"/>
    </linearGradient>
    <linearGradient id="_ÂÁ_Ï_ÌÌ_È_ËÂÌÚ_2" data-name="¡ÂÁ˚ÏˇÌÌ˚È „‡‰ËÂÌÚ 2" x1="3090.67" y1="125.59" x2="3148.91" y2="223.7" gradientTransform="translate(-2880.82)" gradientUnits="userSpaceOnUse">
      <stop offset="0" stop-color="#cad6e0"/>
      <stop offset="0.05" stop-color="#aec0d0"/>
      <stop offset="0.15" stop-color="#7998b1"/>
      <stop offset="0.25" stop-color="#4e7698"/>
      <stop offset="0.35" stop-color="#2c5c84"/>
      <stop offset="0.44" stop-color="#144976"/>
      <stop offset="0.53" stop-color="#053e6e"/>
      <stop offset="0.6" stop-color="#003a6b"/>
      <stop offset="1" stop-color="#00204c"/>
    </linearGradient>
  </defs>
  <title>robot</title>
  <g class="cls-1">
    <g id="prosabot">
      <g id="fondo">
        <rect class="cls-2" width="1024" height="620"/>
      </g>
      <g id="brazoDerecho">
        <g>
          <path class="cls-3" d="M363,327.07c-17-45.37-47.55-60.64-47.55-60.64s-13.15-1.87-25.62,12.23c-8.5,9.63-3.71,19.29-3.71,19.29s52.35,42.14,65.63,55.91S369.36,344.11,363,327.07Z"/>
          <path class="cls-3" d="M363,327.07c-17-45.37-47.55-60.64-47.55-60.64s-13.15-1.87-25.62,12.23c-8.5,9.63-3.71,19.29-3.71,19.29s52.35,42.14,65.63,55.91S369.36,344.11,363,327.07Z"/>
          <path class="cls-4" d="M359.21,334.39c-11.87-26.79-22.68-39.59-33.32-46.69-18.24-12.18-32-10-40.58-.77a19.82,19.82,0,0,1,4.5-8.27c12.47-14.1,25.62-12.23,25.62-12.23S346,281.7,363,327.07c4.41,11.78,3.69,26.63-1.55,30.15C361.81,356,366.29,350.35,359.21,334.39Z"/>
          <path class="cls-3" d="M329.64,333.07c2.95,2.82,4.61,8.65,4.41,11.47s-2.52,6.84-2.52,6.84a7.86,7.86,0,0,0,6.38-1.12c3.15-2.15,4.07-5.89,4.7-7.52S329.64,333.07,329.64,333.07Z"/>
          <path class="cls-5" d="M325.88,299.43a180,180,0,0,0-15.47-12c-2.73-1.79-.07-3.61,2.43-2.37,5.42,2.69,13.33,9.11,23.16,18.4,5.76,5.44,21.24,27.37,22.93,41.81A118.41,118.41,0,0,0,325.88,299.43Z"/>
          <path class="cls-6" d="M362.27,322.4l0,0a.93.93,0,0,0-1,.16c-6.85,7.7-21.12,13.47-34.06,9a.88.88,0,0,0-.95.22c-.18.25,0,.54.32.67,13.7,4.72,28.72-1.3,35.91-9.37A.41.41,0,0,0,362.27,322.4Z"/>
        </g>
        <path class="cls-7" d="M316.69,282.7c1.06-12.47-4.36-22.83-12.1-23.14s-14.88,9.53-15.94,22,4.36,22.82,12.11,23.13S315.63,295.16,316.69,282.7Z"/>
      </g>
      <g id="torso">
        <path class="cls-3" d="M144.06,246.21c-8-.51-36.31,27.86-27.8,55.39S173,421,183.9,453.17s17.46,40.09,33,43,39,4,66.18-52.8,31.39-120.57,32.62-150.87-1.93-42.32-12.53-45.78C278.46,238.67,144.06,246.21,144.06,246.21Z"/>
        <path class="cls-5" d="M272.09,436.69c21.09-59.74,18.55-123.95,16.59-154.38-1.3-20.22-3.69-32.15-8.35-38.56-22.46-1.26-55.27-.72-83.07.18,14.86,39.22,36.84,105.27,40.5,173.31,2.44,45.39-3.83,67.57-12.51,78.93C239.41,493.34,256.4,481.14,272.09,436.69Z"/>
        <path class="cls-8" d="M305.51,249.25c0,5.89-41.59,15-83.56,15.1s-83.6-8.94-83.61-14.82S180,243.1,221.92,243,305.5,243.37,305.51,249.25Z"/>
        <path class="cls-9" d="M280.14,250.45c0,4.08-28.65,10.4-57.56,10.45S165,254.72,165,250.64s28.66-4.44,57.56-4.49S280.13,246.38,280.14,250.45Z"/>
        <path class="cls-10" d="M262.55,252.57c0,1.56-19.76,3.53-39,3.56s-37.7-1.88-37.7-3.44,18.43-2.17,37.69-2.2S262.54,251,262.55,252.57Z"/>
        <path class="cls-11" d="M201.17,459.82c-4.46-24.07-11.11-102.8-26.94-158.36-7.93-27.85-26.6-47.5-44.67-41.28-12.83,4.42-17.9,26.53-13.3,41.42C124.78,329.13,173,421,183.9,453.17s17.46,40.09,33,43c8,1.5,18.1,2.49,29.73-4.64C230.87,494,208.55,499.69,201.17,459.82Z"/>
        <path class="cls-12" d="M256.71,471.55a28.35,28.35,0,0,1-9.56,1.57,43.91,43.91,0,0,1-10.7-.78c-2-.5-3.74-1.79-3.73-4h0a3.87,3.87,0,0,1,3.74-4s8.23.92,10.24.9a73.62,73.62,0,0,0,10.39-1c2.06,0,4,.61,3.37,3.56C260.17,469.25,259.21,470.61,256.71,471.55Z"/>
        <path class="cls-13" d="M255.4,471.11a29.73,29.73,0,0,1-8.27,1.12,46.15,46.15,0,0,1-9.25-.56c-1.72-.36-3.23-1.28-3.23-2.84h0a3.06,3.06,0,0,1,3.24-2.82s7.11.65,8.85.64a76.34,76.34,0,0,0,9-.69c1.78,0,3.45.43,2.91,2.54C258.38,469.47,257.55,470.44,255.4,471.11Z"/>
        <path class="cls-6" d="M244.84,453.39c-18.91,0-42.09-4.1-67.09-14.38a.66.66,0,1,1,.5-1.23c46.6,19.15,86.68,16.71,104.21,6.35a.67.67,0,1,1,.68,1.16C274.81,450.21,261.48,453.39,244.84,453.39Z"/>
        <path class="cls-14" d="M244.35,451.89c-18.91,0-42.09-4.09-67.1-14.37a.68.68,0,0,1-.36-.88.67.67,0,0,1,.87-.36C224.35,455.43,264.44,453,282,442.64a.67.67,0,1,1,.68,1.15C274.32,448.72,261,451.89,244.35,451.89Z"/>
        <path class="cls-5" d="M312.16,261.74c3.57,72.81-6.93,107.26-6.93,107.26s10-55,.78-108.18C304.74,253.53,311.6,250.37,312.16,261.74Z"/>
        <path class="cls-14" d="M144.76,256.66s8.28,5,38.57,7.8,70.16,2.27,70.16,2.27-36.74,4.87-70.3,1.26S144.76,256.66,144.76,256.66Z"/>
        <path class="cls-15" d="M251.58,466.41c-1.46.12-3.17.23-4.84.24s-8.85-.64-8.85-.64a3.82,3.82,0,0,0-.68.06l3.27,6a64.79,64.79,0,0,0,6.65.2,30.05,30.05,0,0,0,7.7-1Z"/>
        <g>
          <path class="cls-16" d="M244.3,311.63a25.74,25.74,0,0,1,16-23.83c1,.08,1.93.2,2.86.37a23.67,23.67,0,0,1,19.69,22.55c0,.26,0,.52,0,.78v.28a14.66,14.66,0,0,0-19.46-13.84c1.45-.52,1.39-.52-.09,0a14.41,14.41,0,0,0-4.95-.86c-8.19,0-14,6.6-14,14.53v.13c0,7.93,5.68,14.4,13.87,14.4a14.13,14.13,0,0,0,4.52-.73,14.66,14.66,0,0,0,20.11-13.38,23.45,23.45,0,0,1-19.55,23,26.44,26.44,0,0,1-3,.37A25.73,25.73,0,0,1,244.3,311.63Z"/>
          <path class="cls-17" d="M253.57,311.8a14.66,14.66,0,0,0,9.23,13.63,14.13,14.13,0,0,1-4.52.73c-8.19,0-13.87-6.47-13.87-14.4v-.13c0-7.93,5.81-14.53,14-14.53a14.41,14.41,0,0,1,4.95.86c1.48-.54,1.54-.54.09,0A14.66,14.66,0,0,0,253.57,311.8Z"/>
          <path class="cls-18" d="M258.28,287.72c.7,0,1.38,0,2.06.08a25.72,25.72,0,0,0,0,47.66c-.64.05-1.29.08-1.95.08-14.26,0-24.63-10.77-24.63-23.91v-.13C233.78,298.35,244,287.72,258.28,287.72Z"/>
          <path class="cls-19" d="M282.91,311.8v0Z"/>
          <path class="cls-20" d="M263.2,325.29c1.54.55,1.51.56,0,0Z"/>
          <path class="cls-21" d="M263.2,325.29c1.54.55,1.51.56,0,0Z"/>
          <path class="cls-22" d="M268.24,326.48a14.68,14.68,0,0,1-5.44-1.05l.4-.14c1.51.56,1.54.55,0,0a14.31,14.31,0,0,0,9.45-13.66v-.13A14.08,14.08,0,0,0,263.37,298l.08,0a14.66,14.66,0,0,1,19.46,13.84v.27A14.68,14.68,0,0,1,268.24,326.48Z"/>
          <path class="cls-23" d="M268.24,326.48a14.68,14.68,0,0,1-5.44-1.05l.4-.14c1.51.56,1.54.55,0,0a14.31,14.31,0,0,0,9.45-13.66v-.13A14.08,14.08,0,0,0,263.37,298l.08,0a14.66,14.66,0,0,1,19.46,13.84v.27A14.68,14.68,0,0,1,268.24,326.48Z"/>
        </g>
      </g>
      <g id="brazoIzquierdo">
        <path class="cls-24" d="M162.47,300.54c5.77,20.09,1.2,39-10.2,42.3S127,332.48,121.18,312.4s-1.2-39,10.2-42.31S156.7,280.45,162.47,300.54Z"/>
        <path class="cls-25" d="M147.48,339.48c-9.35,0-20.41-10.87-26.22-26.61-6.62-18-3.92-35.57,6-39.24s23.45,8,30.07,25.93,3.92,35.57-6,39.24A11.05,11.05,0,0,1,147.48,339.48Zm-16.23-65.21a10.1,10.1,0,0,0-3.49.61c-9.26,3.42-11.61,20.26-5.24,37.53s19.09,28.55,28.35,25.14,11.62-20.25,5.25-37.53C150.51,284.83,140,274.27,131.25,274.27Z"/>
        <g>
          <path class="cls-3" d="M105.19,382.16c-10.8-57.81,5.81-81.06,14.67-91.87,2.6-3.17,12.27-13.16,21.76-7.89,11.16,6.21,12.25,29.55,11.64,33.56-2.38,15.58-18.52,74.63-21.79,96.11C127.91,435.43,109.8,406.86,105.19,382.16Z"/>
          <path class="cls-4" d="M153.26,316c-.4,2.64-1.21,6.54-2.27,11.28-3.23,13.69-9.19,37.38-13.77,57.33-2.6,11.1-4.76,21-5.75,27.5-.05.35-.11.69-.17,1-2.07-27.17,12-77.11,14-101.81.56-6.77,2.94-21.43-9.55-30.38a11.66,11.66,0,0,1,5.86,1.5C152.78,288.61,153.87,312,153.26,316Z"/>
          <path class="cls-5" d="M113.05,306.46c-17.58,28.36,1.61,95.46,1.61,95.46S113,351,118,327.37,119.05,296.78,113.05,306.46Z"/>
          <path class="cls-4" d="M133.46,399.19c1.41,3.79,2.21,7.07,3.53,9.37.46.8,6.24,3.2,6.1,2.75-1.29-4-6.12-25.54-4.52-32.17C139.14,376.79,132.06,395.41,133.46,399.19Z"/>
          <path class="cls-6" d="M139.28,379.59a.66.66,0,0,1-.63-.15c-8.92-8.25-23.78-12.15-33.75-3.13a.69.69,0,0,1-1-.05.68.68,0,0,1,0-.95c10.57-9.54,26.2-5.5,35.56,3.15a.66.66,0,0,1,0,.94A.56.56,0,0,1,139.28,379.59Z"/>
          <g>
            <path class="cls-26" d="M136.74,319.27c-.28,9.33-7.32,16.68-15.72,16.43s-15-8-14.7-17.36,7.32-16.68,15.73-16.42S137,309.94,136.74,319.27Z"/>
            <g>
              <path class="cls-27" d="M111.12,320.25c-.2,3.14,1.55,6.42,3.36,8.92a31.38,31.38,0,0,0,3.66,4.21s9.7-2.48,12.37-8.05c.55-1.17,3.1-8.47,3.1-8.47s.76-1.76-.67-2.57A44.87,44.87,0,0,1,128,311.5a14.6,14.6,0,0,0-3.28-2.11c-.93-.33-1.34-.14-3,0a53,53,0,0,1-5.79-.15c-1.7-.05-1.91,1.92-1.91,1.92S111.21,318.93,111.12,320.25Z"/>
              <path class="cls-28" d="M114,311.15s-2.79,7.78-2.88,9.1c-.41,6.28,7,13.13,7,13.13h0s9.7-2.49,12.37-8.06c.56-1.16,3.1-8.46,3.1-8.46s.76-1.77-.67-2.57A44.87,44.87,0,0,1,128,311.5a14,14,0,0,0-3.28-2.1c-.93-.34-1.34-.15-3,0a52.82,52.82,0,0,1-5.78-.15C114.21,309.18,114,311.15,114,311.15Zm1.53-.32,1.42,0a17.38,17.38,0,0,0,4.46,0c3.08-.59,4,1,5.49,2a28.12,28.12,0,0,0,3.79,2.2l1.23.64a2.29,2.29,0,0,1-.07.36.31.31,0,0,0,0,.1c-1,2.8-2.65,7.52-3,8.31-1.16,2.42-4.08,4.2-6.33,5.28a31,31,0,0,1-3.75,1.48,29.61,29.61,0,0,1-2.62-3.15c-1.45-2-3.19-5.37-3-8.08a58.08,58.08,0,0,1,2.33-8.83C115.4,311.18,115.53,310.83,115.53,310.83Z"/>
              <path class="cls-29" d="M111.12,320.25c-.24,3.65,2.16,7.48,4.22,10.05-1.88-2.53-3.78-5.95-3.57-9.2.09-1.32,2.88-9.11,2.88-9.11s.21-2,1.91-1.92a53,53,0,0,0,5.79.15c1.7-.13,2.11-.32,3,0a13.58,13.58,0,0,1,3.28,2.11,46.58,46.58,0,0,0,4.92,2.79.46.46,0,0,1,.13.08,1.6,1.6,0,0,0-.78-.93A46.58,46.58,0,0,1,128,311.5a13.65,13.65,0,0,0-3.28-2.1c-.93-.34-1.34-.15-3,0a50.76,50.76,0,0,1-5.79-.14c-1.71-.05-1.91,1.92-1.91,1.92S111.21,318.93,111.12,320.25Z"/>
              <path class="cls-28" d="M120.8,320.42a.59.59,0,0,0,.14.57l-.12.46a.13.13,0,0,0,.09.15l.37.1a.13.13,0,0,0,.15-.09l.12-.46a.61.61,0,0,0,0-1.17A.59.59,0,0,0,120.8,320.42Z"/>
              <path class="cls-28" d="M120.8,317.3l-.23.89,2.69.71.23-.89a1.39,1.39,0,1,0-2.69-.71Z"/>
              <path class="cls-28" d="M115.93,313.31s-1.69,5.74-1.77,6.72c-.35,4.66,4.84,10,4.84,10h0s6.89-1.93,8.84-6.1c.41-.87,2.28-6.34,2.28-6.34s.57-1.32-.44-1.91a29.23,29.23,0,0,1-3.47-2c-.59-.44-1.13-.81-1.57-1.08a6,6,0,0,0-1-.53h0a3.81,3.81,0,0,0-2-.16,30.15,30.15,0,0,1-4.07,0C116.34,311.88,115.93,313.31,115.93,313.31Zm2.47,5.1a.76.76,0,0,1,.92-.55l.2.06.23-.9a2.48,2.48,0,1,1,4.79,1.26l-.23.9.19.05a.75.75,0,0,1,.54.92l-.92,3.49a.76.76,0,0,1-.92.54L118,322.82a.77.77,0,0,1-.54-.93Z"/>
              <path class="cls-29" d="M114.17,320c-.26,3.35,2.35,7.07,3.83,8.9-1.48-2-3.41-5.16-3.18-8.05.07-1,1.76-6.72,1.76-6.72s.41-1.44,1.61-1.42a32.18,32.18,0,0,0,4.08,0,3.78,3.78,0,0,1,2,.16h0a7.5,7.5,0,0,1,1,.53c.45.27,1,.64,1.58,1.08a26,26,0,0,0,3.38,2,1.16,1.16,0,0,0-.57-.8,29.23,29.23,0,0,1-3.47-2c-.59-.44-1.12-.81-1.57-1.08a7.32,7.32,0,0,0-1-.54h0a3.87,3.87,0,0,0-2-.17,30.27,30.27,0,0,1-4.07,0c-1.2,0-1.61,1.42-1.61,1.42S114.24,319.05,114.17,320Z"/>
            </g>
          </g>
        </g>
      </g>
      <g id="cabeza">
        <g>
          <path class="cls-3" d="M150.42,223.82c19.1,24.59,77.56,19.91,93.84,18.35s43.89-4.39,53.82-34.37,5-75.73-22.35-99.51-100.47-19.9-125.31,12.15S143.8,215.29,150.42,223.82Z"/>
          <path class="cls-14" d="M155.47,127c1.09-.39,23.66-17.94,64.54-21.44,14.07-1.21,36,0,50.07,1.95-1.39-1.48-21.61-13.16-63.31-8.82C196.59,99.73,173,106.1,155.47,127Z"/>
          <path class="cls-5" d="M229.78,119.72c-13.15.21-26.34,1.14-38.74,5.85l-.29.12c12.88,27.27,13.93,62.8,6.39,88.2a53.64,53.64,0,0,1-10.95,20.6c22.74,4,48.18,1.92,58.07,1,10.78-1,26.5-2.62,38.78-12.26a62.3,62.3,0,0,0,3.56-9.31c7.64-25.73,6.46-61.86-6.9-89.26A211.84,211.84,0,0,0,229.78,119.72Z"/>
          <path class="cls-30" d="M182.2,143.93c7.59-10.32,28.26-13,54.17-14.56,33.43-2,44.73,4.06,48.14,7.92s9.35,23.06,8.07,41.72-1.48,24.27-9.16,28.9-29.84,9.19-44.16,9.54c-27.14.66-40.82-.67-49.9-6-4.63-2.72-10.53-17.4-11.46-35.5S178.27,149.28,182.2,143.93Z"/>
          <path class="cls-31" d="M235.43,132.25c-16.09.94-30.07,2.33-39.91,5.8,8.61,23.89,8.66,52.22,2.27,73.18-.07.24-.15.47-.23.71,8.6,2.48,20.91,3.08,40.64,2.61,13.75-.33,35-4.57,42.38-8.91a13.12,13.12,0,0,0,5.77-6,124.9,124.9,0,0,0-4.25-59.37,5.41,5.41,0,0,0-.48-.61C278.35,136,267.5,130.39,235.43,132.25Z"/>
          <path class="cls-7" d="M164.63,161.08c-.45,10.13-6.11,18.11-12.64,17.82s-11.47-8.74-11-18.88,6.12-18.11,12.65-17.82S165.08,150.94,164.63,161.08Z"/>
          <path class="cls-32" d="M159.46,160.32c-.32,7.11-3.79,12.73-7.74,12.56s-6.92-6.09-6.6-13.2,3.78-12.74,7.74-12.56S159.77,153.2,159.46,160.32Z"/>
          <path class="cls-25" d="M159.56,160.85l-.66,0,.66,0a24.9,24.9,0,0,0-3-13.5c-2.2-3.76-5.28-5.92-8.68-6.07-6.87-.3-12.88,8-13.34,18.46s4.76,19.27,11.65,19.57h.37C153.32,179.32,159.11,171.15,159.56,160.85Zm-11.71-18.24c2.93.14,5.62,2.06,7.58,5.42a23.55,23.55,0,0,1,2.8,12.76c-.44,9.75-5.8,17.44-11.95,17.19s-10.81-8.43-10.37-18.18c.42-9.58,5.61-17.19,11.63-17.19Z"/>
          <path class="cls-5" d="M147,184.57l4.8.16s2,19.92,7.77,31.61,13.91,15.45,13.91,15.45-12.29-4-19.64-19.14C148.57,201.72,147,184.57,147,184.57Z"/>
          <path class="cls-33" d="M186.71,145.45v0a2.55,2.55,0,0,0,3.66.87c2.33-1.6,5.88-4,7.93-5.09,3.22-1.76,19.19-7.65,19.19-7.65s-16,.32-29.59,7.71A3,3,0,0,0,186.71,145.45Z"/>
        </g>
        <path class="cls-34" d="M174.17,158.74c0,3.15-1.46,5.7-3.27,5.7s-3.26-2.55-3.26-5.7,1.46-5.69,3.26-5.69S174.17,155.6,174.17,158.74Z"/>
      </g>
      <g id="ojos">
        <g>
          <rect class="cls-35" x="212.95" y="151.02" width="23.05" height="30.12" rx="8.27"/>
          <rect class="cls-35" x="215.37" y="154.25" width="18.22" height="23.64" rx="8.27"/>
          <rect class="cls-36" x="218.44" y="157.29" width="12.64" height="18.41" rx="5.13"/>
          <path class="cls-37" d="M229.73,164.39H219.35a.51.51,0,0,1,0-1h10.38a.51.51,0,1,1,0,1Z"/>
          <path class="cls-37" d="M229.73,166.58H219.35a.51.51,0,0,1,0-1h10.38a.51.51,0,1,1,0,1Z"/>
          <path class="cls-37" d="M229.73,168.85H219.35a.5.5,0,0,1,0-1h10.38a.5.5,0,1,1,0,1Z"/>
          <path class="cls-37" d="M228.41,160.18h-7.74a.51.51,0,0,1,0-1h7.74a.51.51,0,0,1,0,1Z"/>
          <path class="cls-37" d="M229.73,162.45H219.35a.5.5,0,0,1-.5-.5.5.5,0,0,1,.5-.5h10.38a.51.51,0,0,1,.51.5A.5.5,0,0,1,229.73,162.45Z"/>
          <path class="cls-37" d="M229.73,171.56H219.35a.51.51,0,0,1,0-1h10.38a.51.51,0,1,1,0,1Z"/>
          <path class="cls-37" d="M229.73,173.75H219.35a.51.51,0,0,1,0-1h10.38a.51.51,0,1,1,0,1Z"/>
        </g>
        <g>
          <rect class="cls-35" x="249.69" y="151.02" width="23.05" height="30.12" rx="8.27"/>
          <rect class="cls-35" x="252.11" y="154.25" width="18.22" height="23.64" rx="8.27"/>
          <rect class="cls-36" x="255.18" y="157.29" width="12.64" height="18.41" rx="5.13"/>
          <path class="cls-37" d="M266.47,164.39H256.09a.51.51,0,0,1,0-1h10.38a.51.51,0,0,1,0,1Z"/>
          <path class="cls-37" d="M266.47,166.58H256.09a.51.51,0,0,1,0-1h10.38a.51.51,0,0,1,0,1Z"/>
          <path class="cls-37" d="M266.47,168.85H256.09a.5.5,0,0,1,0-1h10.38a.5.5,0,0,1,0,1Z"/>
          <path class="cls-37" d="M265.15,160.18h-7.74a.51.51,0,0,1,0-1h7.74a.51.51,0,0,1,0,1Z"/>
          <path class="cls-37" d="M266.47,162.45H256.09a.5.5,0,0,1-.5-.5.5.5,0,0,1,.5-.5h10.38a.5.5,0,0,1,.5.5A.5.5,0,0,1,266.47,162.45Z"/>
          <path class="cls-37" d="M266.47,171.56H256.09a.51.51,0,0,1,0-1h10.38a.51.51,0,0,1,0,1Z"/>
          <path class="cls-37" d="M266.47,173.75H256.09a.51.51,0,0,1,0-1h10.38a.51.51,0,0,1,0,1Z"/>
        </g>
      </g>
      <path id="boca" class="cls-38" d="M229.28,196.58c10.41,1.32,29.07,2.35,29.07,2.35s-16.51,1.68-27.27-.17S218.09,195.16,229.28,196.58Z"/>
      <g id="sombra">
        <g id="Sombra-2" data-name="Sombra">
          <ellipse class="cls-39" cx="219.75" cy="534.37" rx="82.97" ry="18.63"/>
          <ellipse class="cls-40" cx="219.75" cy="534.37" rx="64.63" ry="11.85"/>
          <path class="cls-40" d="M258.66,534.37c0,3.94-17.42,7.14-38.91,7.14s-38.91-3.2-38.91-7.14,17.42-7.13,38.91-7.13S258.66,530.43,258.66,534.37Z"/>
        </g>
      </g>
    </g>
  </g>
</svg>
