<svg xmlns="http://www.w3.org/2000/svg" xmlns:xlink="http://www.w3.org/1999/xlink" width="1024" height="620" viewBox="0 0 1024 620">
  <defs>
    <style>
      .cls-1 {
        isolation: isolate;
      }

      .cls-2 {
        fill: none;
      }

      .cls-3 {
        fill: #e2eafb;
      }

      .cls-4 {
        fill: #cbdcf9;
      }

      .cls-5 {
        fill: #f9faff;
      }

      .cls-6 {
        fill: #80a6f5;
      }

      .cls-7 {
        fill: #9ebbfa;
      }

      .cls-8 {
        fill: #b7cff8;
      }

      .cls-25, .cls-34, .cls-9 {
        fill: #207bff;
      }

      .cls-26, .cls-9 {
        opacity: 0.4;
      }

      .cls-10 {
        fill: #004bff;
        opacity: 0.5;
        mix-blend-mode: multiply;
      }

      .cls-11 {
        fill: #c4d7f9;
      }

      .cls-12 {
        fill: url(#_ÂÁ_Ï_ÌÌ_È_ËÂÌÚ_3);
      }

      .cls-13 {
        fill: #4aeaff;
      }

      .cls-14, .cls-33 {
        fill: #fff;
      }

      .cls-15 {
        fill: #bdf8ff;
      }

      .cls-16 {
        fill: url(#linear-gradient);
      }

      .cls-17 {
        fill: #eb1c24;
      }

      .cls-18 {
        fill: url(#linear-gradient-2);
      }

      .cls-19 {
        fill: url(#linear-gradient-3);
      }

      .cls-20 {
        fill: url(#linear-gradient-4);
      }

      .cls-21 {
        fill: url(#linear-gradient-5);
      }

      .cls-22 {
        fill: url(#linear-gradient-6);
      }

      .cls-23 {
        fill: url(#linear-gradient-7);
      }

      .cls-24 {
        fill: #92b3fa;
      }

      .cls-26 {
        mix-blend-mode: lighten;
        fill: url(#radial-gradient);
      }

      .cls-27 {
        fill: #00ffda;
      }

      .cls-28 {
        fill: #7fd1ca;
      }

      .cls-29 {
        fill: #1e1e1e;
      }

      .cls-30 {
        fill: url(#_ÂÁ_Ï_ÌÌ_È_ËÂÌÚ_14);
      }

      .cls-31 {
        fill: url(#_ÂÁ_Ï_ÌÌ_È_ËÂÌÚ_2);
      }

      .cls-32 {
        fill: #4880f7;
      }

      .cls-33 {
        opacity: 0.8;
      }

      .cls-34 {
        opacity: 0.72;
      }

      .cls-35, .cls-36, .cls-37, .cls-38 {
        fill: #3ae5fa;
      }

      .cls-35, .cls-39 {
        opacity: 0.1;
      }

      .cls-36 {
        opacity: 0.3;
      }

      .cls-38 {
        opacity: 0.7;
      }

      .cls-39, .cls-40 {
        fill: #51b2fb;
      }

      .cls-40 {
        opacity: 0.2;
      }
    </style>
    <radialGradient id="_ÂÁ_Ï_ÌÌ_È_ËÂÌÚ_3" data-name="¡ÂÁ˚ÏˇÌÌ˚È „‡‰ËÂÌÚ 3" cx="3033.42" cy="498.8" r="5.98" gradientTransform="translate(-2880.82)" gradientUnits="userSpaceOnUse">
      <stop offset="0" stop-color="#4aeaff"/>
      <stop offset="1" stop-color="#00709d"/>
    </radialGradient>
    <linearGradient id="linear-gradient" x1="404.51" y1="394.36" x2="404.51" y2="427.33" gradientTransform="translate(-242.09)" gradientUnits="userSpaceOnUse">
      <stop offset="0.02" stop-color="#dc2a21"/>
      <stop offset="0.06" stop-color="#c7201b"/>
      <stop offset="0.1" stop-color="#b61717"/>
      <stop offset="0.15" stop-color="#ab1113"/>
      <stop offset="0.22" stop-color="#a40e12"/>
      <stop offset="0.43" stop-color="#a20d11"/>
      <stop offset="0.79" stop-color="#6b0006"/>
    </linearGradient>
    <linearGradient id="linear-gradient-2" x1="394.94" y1="395.83" x2="394.94" y2="419.49" gradientTransform="translate(-242.09)" gradientUnits="userSpaceOnUse">
      <stop offset="0" stop-color="#ac1a27"/>
      <stop offset="0.08" stop-color="#9e151f"/>
      <stop offset="0.28" stop-color="#7d0a0e"/>
      <stop offset="0.44" stop-color="#680304"/>
      <stop offset="0.56" stop-color="#610000"/>
      <stop offset="0.73" stop-color="#520000"/>
      <stop offset="1" stop-color="#3f0000"/>
    </linearGradient>
    <linearGradient id="linear-gradient-3" x1="539.18" y1="408.01" x2="555.07" y2="408.01" gradientTransform="matrix(-1, 0, 0, 1, 728.44, 0)" gradientUnits="userSpaceOnUse">
      <stop offset="0" stop-color="#bd1349"/>
      <stop offset="0.24" stop-color="#bd124e"/>
      <stop offset="0.25" stop-color="#bd124e"/>
      <stop offset="1" stop-color="#7a0025"/>
    </linearGradient>
    <linearGradient id="linear-gradient-4" x1="534.66" y1="415.88" x2="555.14" y2="415.88" gradientTransform="matrix(-1, 0, 0, 1, 728.44, 0)" gradientUnits="userSpaceOnUse">
      <stop offset="0" stop-color="#282880"/>
      <stop offset="0.27" stop-color="#26257c"/>
      <stop offset="0.56" stop-color="#1f1b6f"/>
      <stop offset="0.85" stop-color="#140b5a"/>
      <stop offset="1" stop-color="#0d004c"/>
    </linearGradient>
    <linearGradient id="linear-gradient-5" x1="539.5" y1="415.88" x2="555.06" y2="415.88" xlink:href="#linear-gradient-3"/>
    <linearGradient id="linear-gradient-6" x1="542.66" y1="407.95" x2="562.21" y2="407.95" xlink:href="#linear-gradient-4"/>
    <linearGradient id="linear-gradient-7" x1="409.87" y1="415.09" x2="409.87" y2="403.89" gradientTransform="translate(-242.09)" gradientUnits="userSpaceOnUse">
      <stop offset="0" stop-color="#ec2d24"/>
      <stop offset="0.12" stop-color="#ec2824"/>
      <stop offset="0.25" stop-color="#eb1c24"/>
      <stop offset="1" stop-color="#74020d"/>
    </linearGradient>
    <radialGradient id="radial-gradient" cx="3220.18" cy="663.73" r="11.89" gradientTransform="matrix(0.74, 0.02, -0.03, 0.82, -2288.1, -206.49)" gradientUnits="userSpaceOnUse">
      <stop offset="0" stop-color="#00ddde" stop-opacity="0.52"/>
      <stop offset="0.09" stop-color="#2de6e7" stop-opacity="0.65"/>
      <stop offset="0.2" stop-color="#63f1f1" stop-opacity="0.8"/>
      <stop offset="0.3" stop-color="#8af8f9" stop-opacity="0.91"/>
      <stop offset="0.38" stop-color="#a2fdfd" stop-opacity="0.98"/>
      <stop offset="0.43" stop-color="#abffff"/>
      <stop offset="0.46" stop-color="#9ffcfd"/>
      <stop offset="0.51" stop-color="#7ff6f6"/>
      <stop offset="0.58" stop-color="#4aebeb"/>
      <stop offset="0.66" stop-color="#03dcdd"/>
      <stop offset="0.66" stop-color="#00dbdc"/>
      <stop offset="0.69" stop-color="#08dcdd" stop-opacity="0.97"/>
      <stop offset="0.74" stop-color="#1fdfe0" stop-opacity="0.88"/>
      <stop offset="0.8" stop-color="#44e5e5" stop-opacity="0.73"/>
      <stop offset="0.87" stop-color="#78eced" stop-opacity="0.53"/>
      <stop offset="0.94" stop-color="#baf5f6" stop-opacity="0.27"/>
      <stop offset="1" stop-color="#fff" stop-opacity="0"/>
    </radialGradient>
    <linearGradient id="_ÂÁ_Ï_ÌÌ_È_ËÂÌÚ_14" data-name="¡ÂÁ˚ÏˇÌÌ˚È „‡‰ËÂÌÚ 14" x1="2949.43" y1="465.11" x2="3015.97" y2="465.11" gradientTransform="translate(-2856.17 13.43) rotate(-2.88)" gradientUnits="userSpaceOnUse">
      <stop offset="0" stop-color="#003a6b"/>
      <stop offset="1" stop-color="#00204c"/>
    </linearGradient>
    <linearGradient id="_ÂÁ_Ï_ÌÌ_È_ËÂÌÚ_2" data-name="¡ÂÁ˚ÏˇÌÌ˚È „‡‰ËÂÌÚ 2" x1="3012.12" y1="300.14" x2="3045.84" y2="356.94" gradientTransform="translate(-2880.82)" gradientUnits="userSpaceOnUse">
      <stop offset="0" stop-color="#cad6e0"/>
      <stop offset="0.05" stop-color="#aec0d0"/>
      <stop offset="0.15" stop-color="#7998b1"/>
      <stop offset="0.25" stop-color="#4e7698"/>
      <stop offset="0.35" stop-color="#2c5c84"/>
      <stop offset="0.44" stop-color="#144976"/>
      <stop offset="0.53" stop-color="#053e6e"/>
      <stop offset="0.6" stop-color="#003a6b"/>
      <stop offset="1" stop-color="#00204c"/>
    </linearGradient>
  </defs>
  <title>robot</title>
  <g class="cls-1">
    <g id="prosabot">
      <rect id="fondo" class="cls-2" width="1024" height="620"/>
      <g id="brazoDerecho">
        <g>
          <path class="cls-3" d="M221.33,422c-9.83-30.79-27.54-41.16-27.54-41.16s-7.61-1.27-14.83,8.3a13.82,13.82,0,0,0-2.14,13.09s30.3,28.62,38,38S225,433.57,221.33,422Z"/>
          <path class="cls-3" d="M221.33,422c-9.83-30.79-27.54-41.16-27.54-41.16s-7.61-1.27-14.83,8.3a13.82,13.82,0,0,0-2.14,13.09s30.3,28.62,38,38S225,433.57,221.33,422Z"/>
          <path class="cls-4" d="M219.14,427c-6.87-18.19-13.13-26.87-19.29-31.69-10.56-8.27-18.5-6.81-23.49-.52a14.24,14.24,0,0,1,2.6-5.62c7.22-9.57,14.83-8.3,14.83-8.3S211.5,391.21,221.33,422c2.55,8,2.13,18.08-.9,20.47C220.65,441.61,223.24,437.81,219.14,427Z"/>
          <path class="cls-3" d="M202,426.08c1.71,1.91,2.67,5.87,2.55,7.79a15.57,15.57,0,0,1-1.46,4.64,4,4,0,0,0,3.7-.76c1.82-1.46,2.36-4,2.72-5.11S202,426.08,202,426.08Z"/>
          <path class="cls-5" d="M199.84,403.24a110,110,0,0,0-9-8.13c-1.58-1.21,0-2.45,1.4-1.61,3.14,1.83,7.72,6.19,13.41,12.5C209,409.69,218,424.57,219,434.38A82.47,82.47,0,0,0,199.84,403.24Z"/>
          <path class="cls-6" d="M220.91,418.83h0a.47.47,0,0,0-.57.11c-4,5.23-12.23,9.14-19.72,6.11a.48.48,0,0,0-.56.15.31.31,0,0,0,.19.45c7.93,3.21,16.63-.88,20.79-6.36A.31.31,0,0,0,220.91,418.83Z"/>
        </g>
        <path class="cls-7" d="M194.52,391.88c.62-8.46-2.52-15.49-7-15.7s-8.62,6.47-9.23,14.93,2.53,15.49,7,15.7S193.91,400.34,194.52,391.88Z"/>
      </g>
      <g id="torso">
        <path class="cls-3" d="M93.21,370c-4.65-.3-21,16.13-16.1,32.07s32.84,69.13,39.16,87.75,10.11,23.21,19.1,24.9,22.57,2.31,38.32-30.57,18.16-69.8,18.88-87.34-1.12-24.51-7.26-26.51C171,365.6,93.21,370,93.21,370Z"/>
        <path class="cls-5" d="M167.33,480.25c12.21-34.58,10.74-71.76,9.61-89.38-.76-11.71-2.14-18.61-4.83-22.32-13-.73-32-.42-48.1.1,8.6,22.71,21.33,61,23.44,100.34,1.42,26.28-2.21,39.12-7.24,45.7C148.41,513.05,158.25,506,167.33,480.25Z"/>
        <path class="cls-8" d="M186.68,371.73c0,3.41-24.08,8.7-48.38,8.74s-48.4-5.17-48.4-8.58,24.09-3.72,48.38-3.76S186.68,368.32,186.68,371.73Z"/>
        <path class="cls-9" d="M172,372.43c0,2.36-16.59,6-33.32,6s-33.34-3.57-33.35-5.93,16.6-2.57,33.33-2.6S172,370.07,172,372.43Z"/>
        <path class="cls-10" d="M161.81,373.65c0,.9-11.44,2.05-22.59,2.06s-21.83-1.08-21.83-2,10.67-1.25,21.82-1.27S161.81,372.75,161.81,373.65Z"/>
        <path class="cls-11" d="M126.27,493.65c-2.58-13.94-6.43-59.53-15.59-91.69-4.6-16.13-15.41-27.5-25.87-23.9-7.43,2.56-10.36,15.36-7.7,24C82,418,110,471.17,116.27,489.79s10.11,23.21,19.1,24.9c4.63.87,10.48,1.45,17.21-2.68C143.47,513.44,130.55,516.73,126.27,493.65Z"/>
        <path class="cls-12" d="M158.43,500.43a16.52,16.52,0,0,1-5.54.92,25.5,25.5,0,0,1-6.19-.46,2.47,2.47,0,0,1-2.16-2.3h0a2.25,2.25,0,0,1,2.17-2.3s4.76.54,5.92.53a42.64,42.64,0,0,0,6-.57c1.19,0,2.31.35,1.95,2.06A3,3,0,0,1,158.43,500.43Z"/>
        <path class="cls-13" d="M157.67,500.18a17.33,17.33,0,0,1-4.79.65,26.38,26.38,0,0,1-5.35-.33c-1-.2-1.87-.74-1.87-1.64h0a1.76,1.76,0,0,1,1.87-1.63s4.12.38,5.12.37a44.76,44.76,0,0,0,5.2-.4c1,0,2,.25,1.69,1.47C159.4,499.23,158.92,499.79,157.67,500.18Z"/>
        <path class="cls-6" d="M151.55,489.92c-10.94,0-24.36-2.37-38.84-8.32a.39.39,0,1,1,.3-.72c27,11.09,50.18,9.68,60.33,3.68a.39.39,0,0,1,.39.67C168.91,488.08,161.19,489.92,151.55,489.92Z"/>
        <path class="cls-14" d="M151.27,489.05c-11,0-24.37-2.37-38.84-8.32a.39.39,0,0,1-.22-.51.4.4,0,0,1,.51-.21c27,11.09,50.18,9.68,60.33,3.68a.39.39,0,0,1,.4.67C168.62,487.21,160.9,489.05,151.27,489.05Z"/>
        <path class="cls-5" d="M190.53,379c2.07,42.15-4,62.1-4,62.1s5.81-31.85.45-62.63C186.24,374.21,190.21,372.38,190.53,379Z"/>
        <path class="cls-14" d="M93.61,376s4.8,2.89,22.34,4.52,40.61,1.31,40.61,1.31-21.27,2.82-40.7.73S93.61,376,93.61,376Z"/>
        <path class="cls-15" d="M155.46,497.46c-.85.07-1.83.13-2.81.14s-5.12-.37-5.12-.37l-.39,0,1.89,3.45a36.28,36.28,0,0,0,3.85.12,17.86,17.86,0,0,0,4.46-.57Z"/>
        <g>
          <path class="cls-16" d="M151.24,407.85a14.92,14.92,0,0,1,9.29-13.8c.56.05,1.12.11,1.66.21a13.73,13.73,0,0,1,11.4,13.06c0,.15,0,.3,0,.45v.17a8.49,8.49,0,0,0-11.27-8c.84-.3.81-.3-.05,0a8.14,8.14,0,0,0-11,7.91v.07a8,8,0,0,0,8,8.34,8.21,8.21,0,0,0,2.61-.42,8.51,8.51,0,0,0,11.65-7.75,13.58,13.58,0,0,1-11.32,13.34,16.54,16.54,0,0,1-1.74.21A14.89,14.89,0,0,1,151.24,407.85Z"/>
          <path class="cls-17" d="M156.61,408a8.49,8.49,0,0,0,5.34,7.89,8.21,8.21,0,0,1-2.61.42,8,8,0,0,1-8-8.34v-.07a8.14,8.14,0,0,1,11-7.91c.86-.32.89-.32.05,0A8.5,8.5,0,0,0,156.61,408Z"/>
          <path class="cls-18" d="M159.34,394c.4,0,.8,0,1.19.05a14.88,14.88,0,0,0,0,27.59c-.37,0-.74.05-1.13.05a13.84,13.84,0,0,1-14.26-13.84v-.08C145.15,400.16,151.08,394,159.34,394Z"/>
          <path class="cls-19" d="M173.6,408v0Z"/>
          <path class="cls-20" d="M162.19,415.76c.89.31.87.32,0,0Z"/>
          <path class="cls-21" d="M162.19,415.76c.89.31.87.32,0,0Z"/>
          <path class="cls-22" d="M165.1,416.44a8.49,8.49,0,0,1-3.15-.6l.24-.08c.87.32.89.31,0,0a8.28,8.28,0,0,0,5.46-7.91v-.08a8.13,8.13,0,0,0-5.37-7.83l.05,0a8.49,8.49,0,0,1,11.27,8v.15A8.49,8.49,0,0,1,165.1,416.44Z"/>
          <path class="cls-23" d="M165.1,416.44a8.49,8.49,0,0,1-3.15-.6l.24-.08c.87.32.89.31,0,0a8.28,8.28,0,0,0,5.46-7.91v-.08a8.13,8.13,0,0,0-5.37-7.83l.05,0a8.49,8.49,0,0,1,11.27,8v.15A8.49,8.49,0,0,1,165.1,416.44Z"/>
        </g>
      </g>
      <g id="brazoIzquierdo">
        <path class="cls-24" d="M103.87,401.43c3.34,11.63.69,22.59-5.91,24.49s-14.66-6-18-17.63-.69-22.6,5.91-24.49S100.53,389.8,103.87,401.43Z"/>
        <path class="cls-25" d="M95.19,424c-5.42,0-11.82-6.29-15.18-15.4-3.84-10.41-2.27-20.6,3.5-22.73s13.57,4.61,17.41,15,2.27,20.59-3.5,22.72A6.54,6.54,0,0,1,95.19,424Zm-9.4-37.75a5.8,5.8,0,0,0-2,.35c-5.36,2-6.72,11.73-3,21.73s11.05,16.53,16.41,14.55,6.73-11.72,3-21.72C96.94,392.33,90.86,386.22,85.79,386.22Z"/>
        <g>
          <path class="cls-3" d="M70.7,448.68c-6.25-33.47,3.37-46.93,8.5-53.19,1.5-1.83,7.1-7.62,12.59-4.56,6.47,3.59,7.1,17.1,6.74,19.42-1.37,9-10.72,43.21-12.61,55.65C83.86,479.52,73.37,463,70.7,448.68Z"/>
          <path class="cls-4" d="M98.53,410.35c-.23,1.53-.69,3.79-1.31,6.54-1.87,7.92-5.32,21.64-8,33.19-1.51,6.42-2.76,12.17-3.33,15.92,0,.2-.06.4-.1.59-1.2-15.73,6.93-44.64,8.11-58.94.33-3.92,1.7-12.41-5.53-17.59a6.55,6.55,0,0,1,3.39.87C98.26,394.52,98.89,408,98.53,410.35Z"/>
          <path class="cls-5" d="M75.26,404.86c-10.18,16.41.93,55.26.93,55.26s-1-29.5,1.91-43.16S78.73,399.25,75.26,404.86Z"/>
          <path class="cls-4" d="M87.07,458.54A43.87,43.87,0,0,0,89.12,464c.26.46,3.61,1.85,3.53,1.59-.75-2.31-3.55-14.79-2.62-18.63C90.36,445.57,86.26,456.35,87.07,458.54Z"/>
          <path class="cls-6" d="M90.44,447.19a.39.39,0,0,1-.37-.08c-5.16-4.78-13.76-7-19.53-1.82a.39.39,0,0,1-.55,0,.37.37,0,0,1,0-.54c6.11-5.53,15.17-3.19,20.58,1.82a.37.37,0,0,1,0,.54A.29.29,0,0,1,90.44,447.19Z"/>
          <g>
            <path class="cls-26" d="M89,412.27c-.16,5.4-4.24,9.66-9.1,9.51s-8.68-4.65-8.51-10,4.24-9.65,9.1-9.51S89.14,406.87,89,412.27Z"/>
            <g>
              <path class="cls-27" d="M74.14,412.84A8.58,8.58,0,0,0,76.08,418a17.46,17.46,0,0,0,2.12,2.44s5.62-1.44,7.16-4.66c.32-.68,1.8-4.9,1.8-4.9s.44-1-.39-1.49a26.57,26.57,0,0,1-2.85-1.62,8.5,8.5,0,0,0-1.9-1.22c-.53-.19-.77-.08-1.76,0a29.72,29.72,0,0,1-3.35-.08c-1,0-1.11,1.11-1.11,1.11A54.87,54.87,0,0,0,74.14,412.84Z"/>
              <path class="cls-28" d="M75.8,407.57a54.87,54.87,0,0,0-1.66,5.27c-.24,3.63,4.06,7.6,4.06,7.6h0s5.62-1.44,7.16-4.67c.32-.67,1.8-4.9,1.8-4.9s.44-1-.39-1.48a27.57,27.57,0,0,1-2.85-1.62,8.14,8.14,0,0,0-1.9-1.22c-.53-.19-.77-.08-1.76,0a29.72,29.72,0,0,1-3.35-.08C75.92,406.43,75.8,407.57,75.8,407.57Zm.89-.19.82,0a9.62,9.62,0,0,0,2.58,0c1.79-.34,2.33.57,3.18,1.18a16.69,16.69,0,0,0,2.19,1.27l.72.38a1.42,1.42,0,0,1,0,.2l0,.06c-.56,1.62-1.54,4.35-1.76,4.81a7.72,7.72,0,0,1-3.66,3.06,21.57,21.57,0,0,1-2.17.86A17.6,17.6,0,0,1,77,417.41a8.33,8.33,0,0,1-1.74-4.68,34.43,34.43,0,0,1,1.35-5.11Z"/>
              <path class="cls-29" d="M74.14,412.84c-.14,2.11,1.25,4.33,2.44,5.82-1.09-1.47-2.19-3.45-2.07-5.33.06-.77,1.67-5.27,1.67-5.27s.12-1.14,1.11-1.12a29.56,29.56,0,0,0,3.35.09c1-.07,1.22-.18,1.76,0a8.14,8.14,0,0,1,1.9,1.22,25.63,25.63,0,0,0,2.85,1.62.15.15,0,0,1,.07.05.86.86,0,0,0-.45-.54,26.57,26.57,0,0,1-2.85-1.62,8.14,8.14,0,0,0-1.9-1.22c-.53-.19-.77-.08-1.76,0a32.28,32.28,0,0,1-3.35-.08c-1,0-1.11,1.11-1.11,1.11S74.19,412.08,74.14,412.84Z"/>
              <path class="cls-28" d="M79.74,412.93a.33.33,0,0,0,.09.33l-.07.27a.07.07,0,0,0,0,.09l.21.05a.07.07,0,0,0,.09-.05l.07-.26a.38.38,0,0,0,.24-.25.35.35,0,0,0-.68-.18Z"/>
              <path class="cls-28" d="M79.74,411.13l-.13.52,1.55.41.14-.52a.81.81,0,0,0-.57-1A.82.82,0,0,0,79.74,411.13Z"/>
              <path class="cls-28" d="M76.92,408.82s-1,3.33-1,3.89c-.21,2.7,2.8,5.81,2.8,5.81h0s4-1.11,5.12-3.53c.23-.5,1.32-3.67,1.32-3.67s.33-.77-.26-1.1a16.25,16.25,0,0,1-2-1.17c-.35-.26-.66-.47-.92-.63a4.18,4.18,0,0,0-.56-.3h0a2.27,2.27,0,0,0-1.17-.09,18.29,18.29,0,0,1-2.36,0C77.16,408,76.92,408.82,76.92,408.82Zm1.43,2.95a.43.43,0,0,1,.54-.31l.11,0,.14-.52a1.43,1.43,0,1,1,2.77.73l-.14.52.12,0a.42.42,0,0,1,.3.53l-.53,2a.44.44,0,0,1-.53.32l-3-.8a.44.44,0,0,1-.31-.53Z"/>
              <path class="cls-29" d="M75.9,412.71c-.15,1.94,1.36,4.09,2.22,5.16-.86-1.16-2-3-1.84-4.67,0-.57,1-3.89,1-3.89s.24-.83.93-.82a18.29,18.29,0,0,0,2.36,0,2.27,2.27,0,0,1,1.17.09h0a3.92,3.92,0,0,1,.57.31,11.06,11.06,0,0,1,.91.63,16.24,16.24,0,0,0,2,1.14.64.64,0,0,0-.33-.46,16.25,16.25,0,0,1-2-1.17c-.35-.26-.66-.47-.91-.62a4,4,0,0,0-.57-.31h0a2.27,2.27,0,0,0-1.17-.09,18.29,18.29,0,0,1-2.36,0c-.69,0-.93.82-.93.82S75.94,412.14,75.9,412.71Z"/>
            </g>
          </g>
        </g>
      </g>
      <g id="cabeza">
        <g>
          <path class="cls-3" d="M96.89,357c11.06,14.24,44.9,11.52,54.33,10.62s25.41-2.54,31.16-19.9,2.88-43.84-12.94-57.61-58.17-11.52-72.55,7S93.06,352.07,96.89,357Z"/>
          <path class="cls-14" d="M99.81,300.94c.63-.22,13.7-10.38,37.37-12.41,8.14-.7,20.84,0,29,1.13-.81-.86-12.51-7.62-36.66-5.11A47.67,47.67,0,0,0,99.81,300.94Z"/>
          <path class="cls-5" d="M142.84,296.74c-7.62.12-15.25.66-22.43,3.39l-.17.07c7.46,15.78,8.07,36.35,3.7,51.06a31.09,31.09,0,0,1-6.34,11.92c13.16,2.32,27.9,1.11,33.62.57,6.24-.59,15.34-1.52,22.45-7.1a35.62,35.62,0,0,0,2.06-5.39c4.43-14.9,3.74-35.82-4-51.68A122.51,122.51,0,0,0,142.84,296.74Z"/>
          <path class="cls-30" d="M115.29,310.76c4.39-6,16.36-7.54,31.36-8.43,19.35-1.16,25.9,2.35,27.88,4.58s5.4,13.35,4.67,24.15-.86,14.05-5.31,16.74-17.27,5.32-25.57,5.52c-15.71.38-23.63-.39-28.88-3.47-2.69-1.58-6.1-10.08-6.64-20.55S113,313.85,115.29,310.76Z"/>
          <path class="cls-31" d="M146.11,304c-9.32.54-17.41,1.34-23.11,3.35,5,13.83,5,30.23,1.32,42.37,0,.14-.09.27-.14.41,5,1.44,12.11,1.78,23.53,1.51,8-.19,20.27-2.65,24.54-5.16a7.65,7.65,0,0,0,3.34-3.48,72.42,72.42,0,0,0-2.46-34.37c-.1-.13-.19-.25-.28-.35C171,306.19,164.68,302.92,146.11,304Z"/>
          <path class="cls-7" d="M105.12,320.68c-.26,5.87-3.54,10.49-7.32,10.32s-6.64-5.06-6.38-10.93,3.54-10.48,7.32-10.32S105.38,314.82,105.12,320.68Z"/>
          <path class="cls-32" d="M102.12,320.24c-.18,4.12-2.19,7.38-4.48,7.27s-4-3.52-3.82-7.64S96,312.5,98.3,312.6,102.31,316.12,102.12,320.24Z"/>
          <path class="cls-25" d="M102.18,320.55l-.38,0,.38,0a14.41,14.41,0,0,0-1.72-7.81c-1.27-2.18-3.06-3.43-5-3.52-4-.18-7.46,4.62-7.73,10.69s2.76,11.15,6.75,11.33h.21C98.57,331.25,101.92,326.51,102.18,320.55ZM95.4,310c1.7.08,3.25,1.19,4.39,3.14a13.63,13.63,0,0,1,1.62,7.39c-.25,5.64-3.36,10.09-6.92,10s-6.25-4.88-6-10.53S91.74,310,95.22,310Z"/>
          <path class="cls-5" d="M94.93,334.28l2.77.1s1.19,11.53,4.51,18.3,8.05,8.94,8.05,8.94-7.12-2.3-11.37-11.08C95.82,344.22,94.93,334.28,94.93,334.28Z"/>
          <path class="cls-33" d="M117.9,311.64h0a1.46,1.46,0,0,0,2.11.5c1.35-.92,3.41-2.3,4.59-2.94,1.87-1,11.12-4.43,11.12-4.43s-9.27.19-17.13,4.46A1.75,1.75,0,0,0,117.9,311.64Z"/>
        </g>
        <path class="cls-34" d="M110.64,319.33c0,1.82-.85,3.3-1.89,3.3s-1.89-1.48-1.89-3.3.84-3.29,1.89-3.29S110.64,317.51,110.64,319.33Z"/>
      </g>
      <g id="ojos">
        <g>
          <rect class="cls-35" x="133.1" y="314.86" width="13.35" height="17.44" rx="4.79"/>
          <rect class="cls-35" x="134.49" y="316.73" width="10.55" height="13.69" rx="4.79"/>
          <rect class="cls-36" x="136.27" y="318.49" width="7.32" height="10.66" rx="2.97"/>
          <path class="cls-37" d="M142.81,322.6h-6a.29.29,0,0,1,0-.58h6a.29.29,0,1,1,0,.58Z"/>
          <path class="cls-37" d="M142.81,323.87h-6a.29.29,0,1,1,0-.58h6a.29.29,0,0,1,0,.58Z"/>
          <path class="cls-37" d="M142.81,325.18h-6a.29.29,0,1,1,0-.58h6a.29.29,0,0,1,0,.58Z"/>
          <path class="cls-37" d="M142,320.16h-4.48a.29.29,0,0,1,0-.58H142a.29.29,0,1,1,0,.58Z"/>
          <path class="cls-37" d="M142.81,321.48h-6a.29.29,0,0,1,0-.58h6a.29.29,0,1,1,0,.58Z"/>
          <path class="cls-37" d="M142.81,326.75h-6a.29.29,0,1,1,0-.58h6a.29.29,0,0,1,0,.58Z"/>
          <path class="cls-37" d="M142.81,328h-6a.29.29,0,0,1,0-.58h6a.29.29,0,1,1,0,.58Z"/>
        </g>
        <g>
          <rect class="cls-35" x="154.36" y="314.86" width="13.35" height="17.44" rx="4.79"/>
          <rect class="cls-35" x="155.76" y="316.73" width="10.55" height="13.69" rx="4.79"/>
          <rect class="cls-36" x="157.54" y="318.49" width="7.32" height="10.66" rx="2.97"/>
          <path class="cls-37" d="M164.08,322.6h-6a.29.29,0,0,1,0-.58h6a.29.29,0,1,1,0,.58Z"/>
          <path class="cls-37" d="M164.08,323.87h-6a.29.29,0,0,1,0-.58h6a.29.29,0,0,1,0,.58Z"/>
          <path class="cls-37" d="M164.08,325.18h-6a.29.29,0,0,1,0-.58h6a.29.29,0,0,1,0,.58Z"/>
          <path class="cls-37" d="M163.31,320.16h-4.48a.29.29,0,1,1,0-.58h4.48a.29.29,0,1,1,0,.58Z"/>
          <path class="cls-37" d="M164.08,321.48h-6a.29.29,0,0,1,0-.58h6a.29.29,0,1,1,0,.58Z"/>
          <path class="cls-37" d="M164.08,326.75h-6a.29.29,0,0,1,0-.58h6a.29.29,0,0,1,0,.58Z"/>
          <path class="cls-37" d="M164.08,328h-6a.29.29,0,1,1,0-.58h6a.29.29,0,1,1,0,.58Z"/>
        </g>
      </g>
      <path id="boca" class="cls-38" d="M142.55,341.24c6,.76,16.83,1.36,16.83,1.36s-9.56,1-15.79-.1S136.07,340.41,142.55,341.24Z"/>
      <g id="sombra">
        <g id="Sombra-2" data-name="Sombra">
          <path class="cls-39" d="M190.06,536.81c0,6-21.5,10.78-48,10.78s-48-4.83-48-10.78S115.5,526,142,526,190.06,530.85,190.06,536.81Z"/>
          <path class="cls-40" d="M179.45,536.81c0,3.78-16.76,6.85-37.42,6.85s-37.42-3.07-37.42-6.85S121.36,530,142,530,179.45,533,179.45,536.81Z"/>
          <path class="cls-40" d="M164.56,536.81c0,2.28-10.09,4.13-22.53,4.13s-22.53-1.85-22.53-4.13,10.09-4.13,22.53-4.13S164.56,534.53,164.56,536.81Z"/>
        </g>
      </g>
    </g>
  </g>
</svg>
